<?xml version="1.0" standalone="no"?><!DOCTYPE svg PUBLIC "-//W3C//DTD SVG 1.1//EN" "http://www.w3.org/Graphics/SVG/1.1/DTD/svg11.dtd"><svg t="1491744987403" class="icon" style="" viewBox="0 0 1024 1024" version="1.1" xmlns="http://www.w3.org/2000/svg" p-id="3729" xmlns:xlink="http://www.w3.org/1999/xlink" width="200" height="200"><defs><style type="text/css"></style></defs><path d="M937.156 388.463l-84.171 0c-4.002 0-7.685 1.192-10.986 2.974l-37.946-114.29c-12.142-65.025-57.898-96.378-114.136-96.378l-356.456 0c-64.554 0-103.735 42.116-114.136 96.315l-38.047 114.678c-3.462-2.006-7.389-3.3-11.655-3.3l-84.189 0c-12.935 0-23.436 10.482-23.436 23.454l0 20.337c0 12.934 10.501 23.436 23.436 23.436l31.873 5.445c-10.061 19.67-15.806 42.173-15.806 68.357l-11.799 134.906c0 3.908 0.287 7.892 0.772 11.9-0.446 2.447-0.772 4.999-0.772 7.61l0 162.296c0 23.091 18.743 41.81 41.834 41.81l63.847 0c23.11 0 41.828-18.718 41.828-41.81l0-52.168 548.93 0 0 52.167c0 23.091 18.724 41.81 41.834 41.81l63.848 0c23.091 0 41.829-18.718 41.829-41.81l0-162.296c0-2.615-0.321-5.163-0.772-7.61 0.465-4.008 0.772-7.992 0.772-11.9l-11.799-134.901c0-26.251-5.766-48.773-15.864-68.506l31.165-5.302c12.953 0 23.436-10.501 23.436-23.436l0-20.337c0.004-12.972-10.479-23.453-23.433-23.453zM247.473 364.444l27.865-74.166 0.388-1.738c2.772-14.998 8.964-17.67 18.11-29.25l436.23 0c9.228 11.9 14.98 14.921 17.527 29.088l28.31 76.068 10.363 41.322c-2.352 30.235-38.678 54.116-68.908 54.116l-411.337 0c-30.255 0-66.581-23.88-68.928-54.116l10.383-41.322zM267.001 717.136c-34.991 0-63.339-28.354-63.339-63.344s28.348-63.339 63.339-63.339c34.991 0 63.344 28.348 63.344 63.339s-28.353 63.344-63.344 63.344zM620.771 670.408l-0.006 0c0 10.42-8.438 18.839-18.844 18.839l-177.697 0c-10.4 0-18.844-8.419-18.844-18.839l0-52.942c0-10.4 8.438-18.82 18.844-18.82l177.698 0c10.405 0 18.848 8.419 18.848 18.82l0 52.942zM756.356 717.136c-34.991 0-63.362-28.354-63.362-63.344s28.372-63.339 63.362-63.339c34.991 0 63.339 28.348 63.339 63.339 0.006 34.991-28.348 63.344-63.339 63.344z" p-id="3730"></path></svg>