<?xml version="1.0" standalone="no"?><!DOCTYPE svg PUBLIC "-//W3C//DTD SVG 1.1//EN" "http://www.w3.org/Graphics/SVG/1.1/DTD/svg11.dtd"><svg t="1491745072375" class="icon" style="" viewBox="0 0 1024 1024" version="1.1" xmlns="http://www.w3.org/2000/svg" p-id="5060" xmlns:xlink="http://www.w3.org/1999/xlink" width="200" height="200"><defs><style type="text/css"></style></defs><path d="M844.8 1024H179.2a102.4 102.4 0 0 1-102.4-102.4V256a102.4 102.4 0 0 1 102.4-102.4h102.4V51.2h204.8V0h51.2v51.2h204.8v102.4h102.4a102.4 102.4 0 0 1 102.4 102.4v665.6a102.4 102.4 0 0 1-102.4 102.4zM691.2 102.4H332.8v51.2h358.4V102.4z m204.8 153.6a51.2 51.2 0 0 0-51.2-51.2H179.2a51.2 51.2 0 0 0-51.2 51.2v665.6a51.2 51.2 0 0 0 51.2 51.2h665.6a51.2 51.2 0 0 0 51.2-51.2V256z m-179.2 307.2h-409.6a25.6 25.6 0 0 1 0-51.2h409.6a25.6 25.6 0 0 1 0 51.2z m0-153.6h-409.6a25.6 25.6 0 0 1 0-51.2h409.6a25.6 25.6 0 0 1 0 51.2z m-409.6 256h204.8a25.6 25.6 0 0 1 0 51.2h-204.8a25.6 25.6 0 0 1 0-51.2z" p-id="5061"></path></svg>