<?xml version="1.0" standalone="no"?><!DOCTYPE svg PUBLIC "-//W3C//DTD SVG 1.1//EN" "http://www.w3.org/Graphics/SVG/1.1/DTD/svg11.dtd"><svg t="1491744856346" class="icon" style="" viewBox="0 0 1024 1024" version="1.1" xmlns="http://www.w3.org/2000/svg" p-id="1109" xmlns:xlink="http://www.w3.org/1999/xlink" width="200" height="200"><defs><style type="text/css"></style></defs><path d="M301.479821 787.79023c1.799996-1.796926 3.696182-3.428076 5.64865-4.964058l272.906553-272.754081L303.362704 233.402841l0.37146-0.37146c-24.175609-24.550139-24.074302-64.023152 0.331551-88.426959 24.521486-24.52865 64.278979-24.52865 88.801489 0 1.803066 1.804089 3.433192 3.708462 4.970198 5.66707L713.256188 465.689255l-0.647753 0.649799c0.207731 0.194428 0.434905 0.361227 0.64059 0.562818 24.532743 23.857361 24.532743 62.527079 0 86.377276-0.209778 0.209778-0.441045 0.375553-0.651846 0.577145l0.645706 0.641613L390.963855 876.598882l-0.36839-0.36839c-0.107447 0.115634-0.201591 0.23843-0.317225 0.354064-24.521486 24.529673-64.280002 24.529673-88.797395 0C276.947078 852.062046 276.947078 812.304554 301.479821 787.79023z" p-id="1110"></path></svg>