<?xml version="1.0" standalone="no"?><!DOCTYPE svg PUBLIC "-//W3C//DTD SVG 1.1//EN" "http://www.w3.org/Graphics/SVG/1.1/DTD/svg11.dtd"><svg t="1491449732175" class="icon" style="" viewBox="0 0 1024 1024" version="1.1" xmlns="http://www.w3.org/2000/svg" p-id="4412" xmlns:xlink="http://www.w3.org/1999/xlink" width="200" height="200"><defs><style type="text/css"></style></defs><path d="M511.957533 959.303448c-131.166496 0-375.114751-199.655425-375.114751-388.433095l0-376.08587 37.298525-0.606821c0.78897 0 84.059572-1.761112 169.96519-36.45225 88.115961-35.606998 144.952491-76.500401 145.487681-76.894375l22.271258-16.135508 22.447267 16.135508c0.534166 0.393973 57.369673 41.287376 145.487681 76.894375 85.913804 34.691138 169.17622 36.45225 170.057287 36.45225l37.122516 0.606821 0.176009 376.08587C887.157219 759.648022 643.206917 959.303448 511.957533 959.303448L511.957533 959.303448zM212.596168 266.887733l0 303.98262c0 145.956356 212.469278 313.073681 299.361364 313.073681 86.884923 0 299.361364-167.118349 299.361364-313.073681L811.318897 266.887733c-37.122516-4.002155-97.397358-14.062288-159.982828-39.341046-64.162386-25.941861-112.867717-54.166721-139.37956-70.962263-26.435095 16.795541-75.224337 45.020401-139.302812 70.962263C309.99148 252.825445 249.711521 262.885578 212.596168 266.887733L212.596168 266.887733zM491.891501 712.17373l-159.275722-134.976269 48.965251-57.33488 102.180296 86.533929 193.927975-222.257212 57.264272 49.417552L491.891501 712.17373zM491.891501 712.17373" p-id="4413"></path></svg>