<?xml version="1.0" standalone="no"?><!DOCTYPE svg PUBLIC "-//W3C//DTD SVG 1.1//EN" "http://www.w3.org/Graphics/SVG/1.1/DTD/svg11.dtd"><svg t="1491449621289" class="icon" style="" viewBox="0 0 1000 1000" version="1.1" xmlns="http://www.w3.org/2000/svg" p-id="2359" xmlns:xlink="http://www.w3.org/1999/xlink" width="200" height="200"><defs><style type="text/css"></style></defs><path d="M515.1568 46.6414c-241.3782 0-437.0546 195.6673-437.0546 437.0367 0 241.3684 195.6764 437.0367 437.0546 437.0367s437.0546-195.6683 437.0546-437.0367C952.2114 242.3087 756.5351 46.6414 515.1568 46.6414zM515.1568 856.2585c-205.7789 0-372.5957-166.8099-372.5957-372.5804s166.8167-372.5804 372.5957-372.5804 372.5957 166.8099 372.5957 372.5804S720.9358 856.2585 515.1568 856.2585zM651.9377 711.1878l21.7701-11.9939c-17.218-21.0028-32.955-42.6141-47.5177-64.7191-14.4478-21.9231-27.7743-44.4369-40.2514-67.3663l-31.9387 17.5901c-42.1422-59.3717-78.1112-123.2444-106.6251-192.5075l32.3564-17.8239c-12.493-22.4618-24.1966-45.3972-34.8448-68.9532-11.065-24.4874-21.0626-49.7313-29.7101-75.9275l-21.4893 11.835c-36.4828 20.8339-52.0349 46.9472-46.6693 78.3549l0.3178 1.3301-0.1549 0.0909c1.7319 7.6228 3.5737 15.1857 5.5175 22.7026l0.0789 0.3328 0.008 0.015c33.9564 130.9282 100.2212 244.0615 189.5862 344.4675 0.2908 0.7545 0.5606 1.497 0.8045 2.2245 5.8653 5.9789 11.7345 11.9619 17.5988 17.9358C584.4487 730.092 614.8393 730.8945 651.9377 711.1878L651.9377 711.1878zM692.1521 689.0298c-17.7387-21.3945-33.8544-43.4146-48.681-65.9213-14.2669-21.6593-27.3176-43.6644-39.4619-65.9593l24.5384-13.5148c12.4701 3.1249 71.5874 71.9182 86.7248 132.6601L692.1521 689.0298 692.1521 689.0298zM497.8069 364.4069c-12.1273-21.8322-23.566-44.285-34.0783-67.5322-11.2688-24.9251-21.4024-50.7056-30.0958-77.5524l20.7518-11.4342c28.6697 22.7476 68.7682 122.8437 64.5599 144.8728L497.8069 364.4069z" p-id="2360"></path></svg>